<svg xmlns="http://www.w3.org/2000/svg" width="1280" height="920" viewBox="0 0 1280 920">
<style>text{font-family:Inter,'Noto Sans KR','Apple SD Gothic Neo',Arial,sans-serif;fill:#172033}.title{font-size:30px;font-weight:800}.subtitle{font-size:15px;fill:#667085}.panel-title{font-size:20px;font-weight:800}.label{font-size:13px;fill:#344054}.small{font-size:12px;fill:#667085}.value{font-size:13px;font-weight:700;fill:#172033}</style>
<rect width="1280" height="920" fill="#f8fafc"/>
<text x="48" y="56" text-anchor="start" class="title">제주대학교 규정 RAG 평가 성능 요약</text>
<text x="48" y="84" text-anchor="start" class="subtitle">검색 평가는 100개 QA, 생성/양자화 평가는 25개 QA 기준</text>
<rect x="48" y="116" width="520" height="270" rx="8" fill="#ffffff" stroke="#d0d5dd"/>
<text x="72" y="152" text-anchor="start" class="panel-title">검색 성능</text>
<text x="72" y="175" text-anchor="start" class="subtitle">BGE-M3 + FAISS, 100 QA</text>
<text x="72" y="204" text-anchor="start" class="label">Hit@1</text>
<rect x="217" y="190" width="225" height="18" rx="999" fill="#eaecf0"/>
<rect x="217" y="190" width="198.0" height="18" rx="999" fill="#0f766e"/>
<text x="454" y="204" text-anchor="start" class="value">88.0%</text>
<text x="72" y="242" text-anchor="start" class="label">Hit@3</text>
<rect x="217" y="228" width="225" height="18" rx="999" fill="#eaecf0"/>
<rect x="217" y="228" width="218.25" height="18" rx="999" fill="#0f766e"/>
<text x="454" y="242" text-anchor="start" class="value">97.0%</text>
<text x="72" y="280" text-anchor="start" class="label">Hit@5</text>
<rect x="217" y="266" width="225" height="18" rx="999" fill="#eaecf0"/>
<rect x="217" y="266" width="225" height="18" rx="999" fill="#0f766e"/>
<text x="454" y="280" text-anchor="start" class="value">100.0%</text>
<text x="72" y="318" text-anchor="start" class="label">MRR</text>
<rect x="217" y="304" width="225" height="18" rx="999" fill="#eaecf0"/>
<rect x="217" y="304" width="209.0625" height="18" rx="999" fill="#0f766e"/>
<text x="454" y="318" text-anchor="start" class="value">92.9%</text>
<rect x="604" y="116" width="628" height="270" rx="8" fill="#ffffff" stroke="#d0d5dd"/>
<text x="628" y="152" text-anchor="start" class="panel-title">생성 품질 비교</text>
<text x="628" y="175" text-anchor="start" class="subtitle">EXAONE FP16 / INT8 / INT4, 25 QA</text>
<line x1="688" y1="308" x2="1173" y2="308" stroke="#d0d5dd" stroke-width="1"/>
<line x1="688" y1="308" x2="1173" y2="308" stroke="#eef2f6" stroke-width="1"/>
<text x="678" y="312" text-anchor="end" class="small">0</text>
<line x1="688" y1="285.5" x2="1173" y2="285.5" stroke="#eef2f6" stroke-width="1"/>
<text x="678" y="289.5" text-anchor="end" class="small">25</text>
<line x1="688" y1="263.0" x2="1173" y2="263.0" stroke="#eef2f6" stroke-width="1"/>
<text x="678" y="267.0" text-anchor="end" class="small">50</text>
<line x1="688" y1="240.5" x2="1173" y2="240.5" stroke="#eef2f6" stroke-width="1"/>
<text x="678" y="244.5" text-anchor="end" class="small">75</text>
<line x1="688" y1="218.0" x2="1173" y2="218.0" stroke="#eef2f6" stroke-width="1"/>
<text x="678" y="222.0" text-anchor="end" class="small">100</text>
<text x="768.8333333333334" y="334" text-anchor="middle" class="small">인용 정확도</text>
<rect x="723.8333333333334" y="228.8" width="26" height="79.2" rx="4" fill="#2563eb"/>
<text x="736.8333333333334" y="221.8" text-anchor="middle" class="small">88.0%</text>
<rect x="755.8333333333334" y="228.8" width="26" height="79.2" rx="4" fill="#d97706"/>
<text x="768.8333333333334" y="221.8" text-anchor="middle" class="small">88.0%</text>
<rect x="787.8333333333334" y="236.0" width="26" height="72.0" rx="4" fill="#16a34a"/>
<text x="800.8333333333334" y="229.0" text-anchor="middle" class="small">80.0%</text>
<text x="930.5" y="334" text-anchor="middle" class="small">키워드 재현율</text>
<rect x="885.5" y="227.18" width="26" height="80.82000000000001" rx="4" fill="#2563eb"/>
<text x="898.5" y="220.18" text-anchor="middle" class="small">89.8%</text>
<rect x="917.5" y="227.35999999999999" width="26" height="80.64000000000001" rx="4" fill="#d97706"/>
<text x="930.5" y="220.35999999999999" text-anchor="middle" class="small">89.6%</text>
<rect x="949.5" y="229.7" width="26" height="78.30000000000001" rx="4" fill="#16a34a"/>
<text x="962.5" y="222.7" text-anchor="middle" class="small">87.0%</text>
<text x="1092.1666666666665" y="334" text-anchor="middle" class="small">답변 통과율</text>
<rect x="1047.1666666666665" y="232.4" width="26" height="75.6" rx="4" fill="#2563eb"/>
<text x="1060.1666666666665" y="225.4" text-anchor="middle" class="small">84.0%</text>
<rect x="1079.1666666666665" y="228.8" width="26" height="79.2" rx="4" fill="#d97706"/>
<text x="1092.1666666666665" y="221.8" text-anchor="middle" class="small">88.0%</text>
<rect x="1111.1666666666665" y="239.6" width="26" height="68.4" rx="4" fill="#16a34a"/>
<text x="1124.1666666666665" y="232.6" text-anchor="middle" class="small">76.0%</text>
<rect x="652" y="330" width="14" height="14" rx="3" fill="#2563eb"/>
<text x="672" y="342" text-anchor="start" class="small">FP16</text>
<rect x="738" y="330" width="14" height="14" rx="3" fill="#d97706"/>
<text x="758" y="342" text-anchor="start" class="small">INT8</text>
<rect x="824" y="330" width="14" height="14" rx="3" fill="#16a34a"/>
<text x="844" y="342" text-anchor="start" class="small">INT4</text>
<rect x="48" y="418" width="1184" height="420" rx="8" fill="#ffffff" stroke="#d0d5dd"/>
<text x="72" y="454" text-anchor="start" class="panel-title">양자화 효율 비교</text>
<text x="72" y="477" text-anchor="start" class="subtitle">속도, VRAM, 평균 생성 시간</text>
<text x="84" y="492" text-anchor="start" class="label">속도: tokens/sec 높을수록 좋음</text>
<text x="84" y="522" text-anchor="start" class="label">FP16</text>
<rect x="229" y="508" width="805" height="18" rx="999" fill="#eaecf0"/>
<rect x="229" y="508" width="531.038933547401" height="18" rx="999" fill="#7c3aed"/>
<text x="1046" y="522" text-anchor="start" class="value">33.6</text>
<text x="84" y="560" text-anchor="start" class="label">INT8</text>
<rect x="229" y="546" width="805" height="18" rx="999" fill="#eaecf0"/>
<rect x="229" y="546" width="303.34432079351643" height="18" rx="999" fill="#7c3aed"/>
<text x="1046" y="560" text-anchor="start" class="value">19.2</text>
<text x="84" y="598" text-anchor="start" class="label">INT4</text>
<rect x="229" y="584" width="805" height="18" rx="999" fill="#eaecf0"/>
<rect x="229" y="584" width="804.9999999999999" height="18" rx="999" fill="#7c3aed"/>
<text x="1046" y="598" text-anchor="start" class="value">50.9</text>
<text x="84" y="642" text-anchor="start" class="label">VRAM: GB 낮을수록 가벼움</text>
<text x="84" y="672" text-anchor="start" class="label">FP16</text>
<rect x="229" y="658" width="805" height="18" rx="999" fill="#eaecf0"/>
<rect x="229" y="658" width="805" height="18" rx="999" fill="#e11d48"/>
<text x="1046" y="672" text-anchor="start" class="value">17.4 GB</text>
<text x="84" y="710" text-anchor="start" class="label">INT8</text>
<rect x="229" y="696" width="805" height="18" rx="999" fill="#eaecf0"/>
<rect x="229" y="696" width="543.4837337625015" height="18" rx="999" fill="#e11d48"/>
<text x="1046" y="710" text-anchor="start" class="value">11.7 GB</text>
<text x="84" y="748" text-anchor="start" class="label">INT4</text>
<rect x="229" y="734" width="805" height="18" rx="999" fill="#eaecf0"/>
<rect x="229" y="734" width="416.24209679273486" height="18" rx="999" fill="#e11d48"/>
<text x="1046" y="748" text-anchor="start" class="value">9.0 GB</text>
<text x="84" y="792" text-anchor="start" class="label">평균 생성 시간: 초 낮을수록 빠름</text>
<text x="84" y="822" text-anchor="start" class="label">FP16</text>
<rect x="229" y="808" width="805" height="18" rx="999" fill="#eaecf0"/>
<rect x="229" y="808" width="433.4795375150042" height="18" rx="999" fill="#475467"/>
<text x="1046" y="822" text-anchor="start" class="value">4.00s</text>
<text x="84" y="860" text-anchor="start" class="label">INT8</text>
<rect x="229" y="846" width="805" height="18" rx="999" fill="#eaecf0"/>
<rect x="229" y="846" width="805" height="18" rx="999" fill="#475467"/>
<text x="1046" y="860" text-anchor="start" class="value">7.43s</text>
<text x="84" y="898" text-anchor="start" class="label">INT4</text>
<rect x="229" y="884" width="805" height="18" rx="999" fill="#eaecf0"/>
<rect x="229" y="884" width="279.04765877736435" height="18" rx="999" fill="#475467"/>
<text x="1046" y="898" text-anchor="start" class="value">2.58s</text>
<rect x="48" y="858" width="1184" height="36" rx="8" fill="#ecfeff" stroke="#99f6e4"/>
<text x="72" y="881" text-anchor="start" class="label">해석: INT4는 가장 빠르고 VRAM이 낮지만 답변 통과율이 하락했고, INT8은 VRAM은 줄었지만 생성 속도는 FP16보다 느렸다.</text>
</svg>
